<svg data-v-fde0c5aa="" xmlns="http://www.w3.org/2000/svg" viewBox="0 0 300 300" class="iconAboveSlogan"><!----><defs data-v-fde0c5aa=""><!----></defs><rect data-v-fde0c5aa="" fill="transparent" x="0" y="0" width="300px" height="300px" class="logo-background-square"></rect><defs data-v-fde0c5aa=""><!----></defs><g data-v-fde0c5aa="" id="ace981fc-1a2d-453a-9d86-46b35a0ca73d" fill="#2e3034" transform="matrix(4.152691222894081,0,0,4.152691222894081,13.895543783536251,146.68563271785754)"><path d="M8.50 3.75L9.90 3.75L9.90 13.55L8.75 13.55L2.87 6.24L2.87 13.55L1.47 13.55L1.47 3.75L2.62 3.75L8.50 11.06L8.50 3.75ZM15.82 13.64L15.82 13.64Q14.71 13.64 13.83 13.15L13.83 13.15L13.83 13.15Q12.95 12.66 12.45 11.79L12.45 11.79L12.45 11.79Q11.96 10.93 11.96 9.84L11.96 9.84L11.96 9.84Q11.96 8.75 12.45 7.89L12.45 7.89L12.45 7.89Q12.95 7.03 13.83 6.54L13.83 6.54L13.83 6.54Q14.71 6.06 15.82 6.06L15.82 6.06L15.82 6.06Q16.93 6.06 17.80 6.54L17.80 6.54L17.80 6.54Q18.68 7.03 19.17 7.89L19.17 7.89L19.17 7.89Q19.67 8.75 19.67 9.84L19.67 9.84L19.67 9.84Q19.67 10.93 19.17 11.79L19.17 11.79L19.17 11.79Q18.68 12.66 17.80 13.15L17.80 13.15L17.80 13.15Q16.93 13.64 15.82 13.64L15.82 13.64ZM15.82 12.46L15.82 12.46Q16.53 12.46 17.10 12.13L17.10 12.13L17.10 12.13Q17.67 11.80 17.99 11.21L17.99 11.21L17.99 11.21Q18.31 10.61 18.31 9.84L18.31 9.84L18.31 9.84Q18.31 9.07 17.99 8.48L17.99 8.48L17.99 8.48Q17.67 7.88 17.10 7.56L17.10 7.56L17.10 7.56Q16.53 7.24 15.82 7.24L15.82 7.24L15.82 7.24Q15.11 7.24 14.54 7.56L14.54 7.56L14.54 7.56Q13.97 7.88 13.64 8.48L13.64 8.48L13.64 8.48Q13.31 9.07 13.31 9.84L13.31 9.84L13.31 9.84Q13.31 10.61 13.64 11.21L13.64 11.21L13.64 11.21Q13.97 11.80 14.54 12.13L14.54 12.13L14.54 12.13Q15.11 12.46 15.82 12.46L15.82 12.46ZM25.28 12.15L25.70 13.12L25.70 13.12Q25.41 13.37 24.98 13.50L24.98 13.50L24.98 13.50Q24.54 13.64 24.08 13.64L24.08 13.64L24.08 13.64Q22.96 13.64 22.34 13.03L22.34 13.03L22.34 13.03Q21.73 12.43 21.73 11.31L21.73 11.31L21.73 7.24L20.47 7.24L20.47 6.13L21.73 6.13L21.73 4.51L23.07 4.51L23.07 6.13L25.20 6.13L25.20 7.24L23.07 7.24L23.07 11.26L23.07 11.26Q23.07 11.86 23.37 12.18L23.37 12.18L23.37 12.18Q23.67 12.50 24.23 12.50L24.23 12.50L24.23 12.50Q24.85 12.50 25.28 12.15L25.28 12.15ZM27.33 13.55L27.33 6.13L28.67 6.13L28.67 13.55L27.33 13.55ZM28.00 4.70L28.00 4.70Q27.61 4.70 27.35 4.45L27.35 4.45L27.35 4.45Q27.09 4.20 27.09 3.84L27.09 3.84L27.09 3.84Q27.09 3.47 27.35 3.21L27.35 3.21L27.35 3.21Q27.61 2.95 28.00 2.95L28.00 2.95L28.00 2.95Q28.39 2.95 28.65 3.20L28.65 3.20L28.65 3.20Q28.91 3.44 28.91 3.81L28.91 3.81L28.91 3.81Q28.91 4.19 28.65 4.45L28.65 4.45L28.65 4.45Q28.39 4.70 28.00 4.70L28.00 4.70ZM33.95 4.19L33.95 4.19Q32.75 4.19 32.75 5.49L32.75 5.49L32.75 6.13L34.90 6.13L34.90 7.24L32.77 7.24L32.77 13.55L31.43 13.55L31.43 7.24L30.17 7.24L30.17 6.13L31.43 6.13L31.43 5.47L31.43 5.47Q31.43 4.37 32.07 3.72L32.07 3.72L32.07 3.72Q32.72 3.08 33.88 3.08L33.88 3.08L33.88 3.08Q34.33 3.08 34.72 3.19L34.72 3.19L34.72 3.19Q35.11 3.30 35.39 3.51L35.39 3.51L34.99 4.54L34.99 4.54Q34.52 4.19 33.95 4.19L33.95 4.19ZM41.43 6.13L42.74 6.13L39.14 14.29L39.14 14.29Q38.67 15.43 38.03 15.89L38.03 15.89L38.03 15.89Q37.39 16.35 36.50 16.35L36.50 16.35L36.50 16.35Q35.95 16.35 35.44 16.18L35.44 16.18L35.44 16.18Q34.93 16.00 34.59 15.67L34.59 15.67L35.17 14.66L35.17 14.66Q35.74 15.20 36.50 15.20L36.50 15.20L36.50 15.20Q36.99 15.20 37.32 14.95L37.32 14.95L37.32 14.95Q37.65 14.69 37.91 14.06L37.91 14.06L38.15 13.54L34.87 6.13L36.27 6.13L38.86 12.07L41.43 6.13ZM54.63 13.55L53.28 13.55L53.27 6.41L49.73 12.36L49.08 12.36L45.54 6.45L45.54 13.55L44.20 13.55L44.20 3.75L45.35 3.75L49.43 10.64L53.47 3.75L54.61 3.75L54.63 13.55ZM64.08 9.88L64.08 9.88Q64.08 10.04 64.05 10.29L64.05 10.29L58.03 10.29L58.03 10.29Q58.16 11.27 58.89 11.87L58.89 11.87L58.89 11.87Q59.63 12.46 60.72 12.46L60.72 12.46L60.72 12.46Q62.05 12.46 62.86 11.56L62.86 11.56L63.60 12.43L63.60 12.43Q63.10 13.02 62.35 13.33L62.35 13.33L62.35 13.33Q61.60 13.64 60.68 13.64L60.68 13.64L60.68 13.64Q59.50 13.64 58.59 13.15L58.59 13.15L58.59 13.15Q57.68 12.67 57.18 11.80L57.18 11.80L57.18 11.80Q56.69 10.93 56.69 9.84L56.69 9.84L56.69 9.84Q56.69 8.76 57.17 7.90L57.17 7.90L57.17 7.90Q57.65 7.03 58.50 6.54L58.50 6.54L58.50 6.54Q59.35 6.06 60.41 6.06L60.41 6.06L60.41 6.06Q61.47 6.06 62.31 6.54L62.31 6.54L62.31 6.54Q63.14 7.03 63.61 7.90L63.61 7.90L63.61 7.90Q64.08 8.76 64.08 9.88L64.08 9.88ZM60.41 7.20L60.41 7.20Q59.44 7.20 58.79 7.78L58.79 7.78L58.79 7.78Q58.14 8.37 58.03 9.32L58.03 9.32L62.79 9.32L62.79 9.32Q62.68 8.39 62.03 7.79L62.03 7.79L62.03 7.79Q61.38 7.20 60.41 7.20L60.41 7.20Z"></path></g><defs data-v-fde0c5aa=""><!----></defs><g data-v-fde0c5aa="" id="79b4de8e-32c8-4121-a991-d4b9c1f17efc" stroke="none" fill="#488eff" transform="matrix(2.3081601799461864,0,0,2.3081601799461864,113.06943712086101,67.07494626513288)"><path d="M16 32c8.837 0 16-7.163 16-16S24.837 0 16 0 0 7.163 0 16s7.163 16 16 16zM14.817 6.421h2v8.886h8.887v2H14.817V6.421zm-5.959.437h2v14.283h14.283v2H8.858V6.858z"></path></g><defs data-v-fde0c5aa=""><!----></defs><g data-v-fde0c5aa="" id="f3fdfae1-8d60-428b-9f47-60edcfc29422" fill="#2e3034" transform="matrix(0.6595190965301799,0,0,0.6595190965301799,51.89324242018534,222.1880823905)"><path d="M5.25 11.06C5.14 10.86 5.00 10.71 4.82 10.57C4.63 10.43 4.42 10.32 4.20 10.23C3.98 10.15 3.72 10.05 3.49 9.98C3.25 9.91 3.01 9.83 2.77 9.76C2.55 9.69 2.34 9.59 2.16 9.49C1.97 9.39 1.83 9.27 1.72 9.13C1.61 8.99 1.55 8.81 1.55 8.58C1.55 8.40 1.58 8.23 1.67 8.08C1.75 7.92 1.86 7.77 2.02 7.64C2.16 7.52 2.34 7.43 2.55 7.36C2.76 7.29 2.98 7.25 3.23 7.25C3.60 7.25 3.96 7.31 4.34 7.43C4.35 7.60 4.37 7.77 4.38 7.92C4.40 8.08 4.40 8.19 4.41 8.27C4.42 8.36 4.42 8.43 4.42 8.44C4.44 8.67 4.54 8.78 4.73 8.78L5.07 8.78L5.07 7.11C4.34 6.86 3.72 6.75 3.22 6.75C2.87 6.75 2.55 6.80 2.27 6.90C1.99 7.00 1.74 7.14 1.54 7.31C1.34 7.48 1.19 7.69 1.08 7.91C0.97 8.13 0.92 8.37 0.92 8.62C0.92 8.92 0.98 9.16 1.09 9.35C1.20 9.55 1.34 9.70 1.53 9.84C1.71 9.98 1.90 10.09 2.14 10.18C2.37 10.26 2.60 10.35 2.86 10.42C3.09 10.49 3.33 10.57 3.57 10.64C3.79 10.71 4.00 10.81 4.19 10.92C4.37 11.03 4.52 11.16 4.63 11.31C4.75 11.47 4.80 11.65 4.80 11.89C4.80 12.10 4.76 12.29 4.69 12.49C4.61 12.68 4.49 12.84 4.34 12.98C4.19 13.12 4.00 13.23 3.78 13.31C3.56 13.40 3.30 13.44 3.01 13.44C2.48 13.44 2.03 13.37 1.65 13.22C1.64 13.03 1.62 12.87 1.61 12.71C1.60 12.56 1.60 12.43 1.58 12.35C1.57 12.26 1.57 12.19 1.57 12.18C1.55 11.96 1.46 11.84 1.26 11.84L0.92 11.84L0.92 13.54C1.60 13.79 2.28 13.93 2.98 13.93C3.37 13.93 3.71 13.87 4.02 13.76C4.33 13.65 4.58 13.50 4.79 13.30C5.00 13.10 5.15 12.89 5.26 12.63C5.38 12.36 5.43 12.08 5.43 11.77C5.43 11.49 5.36 11.26 5.25 11.06ZM14.59 4.89C14.64 4.94 14.71 4.98 14.78 5.01C14.85 5.04 14.94 5.07 15.02 5.07C15.11 5.07 15.19 5.04 15.26 5.01C15.33 4.98 15.40 4.94 15.46 4.89C15.51 4.83 15.57 4.76 15.60 4.69C15.62 4.62 15.65 4.54 15.65 4.45C15.65 4.37 15.62 4.30 15.60 4.21C15.57 4.14 15.51 4.07 15.46 4.02C15.40 3.96 15.33 3.91 15.26 3.88C15.19 3.85 15.11 3.84 15.02 3.84C14.94 3.84 14.85 3.85 14.78 3.88C14.71 3.91 14.64 3.96 14.59 4.02C14.53 4.07 14.49 4.14 14.46 4.21C14.43 4.28 14.41 4.37 14.41 4.45C14.41 4.54 14.43 4.62 14.46 4.69C14.49 4.76 14.53 4.83 14.59 4.89ZM16.09 13.29L16.02 13.29L15.90 13.29C15.86 13.29 15.79 13.27 15.69 13.27C15.60 13.27 15.48 13.26 15.36 13.26L15.36 6.85L14.69 6.85L13.68 6.85L13.68 7.13C13.68 7.28 13.78 7.36 13.96 7.38L14.03 7.38C14.06 7.38 14.10 7.39 14.14 7.39L14.35 7.39C14.45 7.39 14.56 7.41 14.69 7.41L14.69 13.26C14.53 13.26 14.39 13.29 14.28 13.29L14.04 13.29L13.96 13.29C13.78 13.30 13.68 13.38 13.68 13.54L13.68 13.82L14.69 13.82L15.36 13.82L16.37 13.82L16.37 13.54C16.37 13.38 16.27 13.30 16.09 13.29ZM35.43 13.29L35.35 13.29L35.25 13.29C35.21 13.29 35.14 13.27 35.04 13.27C34.94 13.27 34.82 13.26 34.69 13.26L34.69 9.37C34.69 8.95 34.64 8.57 34.54 8.25C34.44 7.92 34.30 7.64 34.10 7.42C33.91 7.20 33.67 7.03 33.39 6.92C33.11 6.80 32.82 6.75 32.47 6.75C32.23 6.75 31.98 6.78 31.75 6.85C31.53 6.92 31.32 7.01 31.12 7.15C30.93 7.29 30.74 7.46 30.59 7.67C30.44 7.88 30.32 8.13 30.24 8.43C30.13 7.90 29.93 7.48 29.62 7.18C29.32 6.89 28.91 6.75 28.41 6.75C28.18 6.75 27.97 6.76 27.78 6.83C27.58 6.89 27.40 6.99 27.22 7.10C27.05 7.21 26.88 7.36 26.73 7.52C26.57 7.67 26.43 7.84 26.29 8.04L26.24 7.03C26.22 6.92 26.15 6.86 26.03 6.86L25.66 6.86L24.65 6.86L24.65 7.13C24.65 7.28 24.74 7.36 24.92 7.38L25.00 7.38C25.03 7.38 25.06 7.39 25.10 7.39L25.31 7.39C25.41 7.39 25.54 7.41 25.66 7.41L25.66 13.26C25.49 13.26 25.35 13.29 25.24 13.29L25.02 13.29L24.92 13.29C24.74 13.30 24.65 13.38 24.65 13.54L24.65 13.82L25.66 13.82L26.32 13.82L27.33 13.82L27.33 13.54C27.33 13.38 27.24 13.30 27.06 13.29L26.98 13.29L26.88 13.29C26.84 13.29 26.77 13.27 26.67 13.27C26.57 13.27 26.45 13.26 26.32 13.26L26.32 8.55C26.57 8.15 26.87 7.84 27.19 7.62C27.51 7.39 27.86 7.28 28.24 7.28C28.76 7.28 29.15 7.45 29.41 7.81C29.68 8.18 29.82 8.69 29.82 9.37L29.82 13.82L30.49 13.82L30.49 13.82L31.50 13.82L31.50 13.54C31.50 13.38 31.40 13.30 31.22 13.29L31.15 13.29L31.04 13.29C31.00 13.29 30.93 13.27 30.83 13.27C30.73 13.27 30.62 13.26 30.49 13.26L30.49 9.37C30.49 9.02 30.53 8.72 30.63 8.46C30.73 8.19 30.87 7.97 31.04 7.80C31.21 7.63 31.40 7.49 31.63 7.41C31.85 7.32 32.09 7.28 32.33 7.28C32.87 7.28 33.29 7.46 33.59 7.81C33.88 8.18 34.03 8.68 34.03 9.37L34.03 13.82L34.69 13.82L35.70 13.82L35.70 13.54C35.70 13.38 35.62 13.30 35.43 13.29ZM49.70 7.63C49.22 7.04 48.55 6.73 47.70 6.73C47.18 6.73 46.73 6.86 46.31 7.11C45.91 7.36 45.54 7.69 45.23 8.11L45.16 7.03C45.16 6.96 45.15 6.92 45.11 6.89C45.07 6.86 45.01 6.86 44.95 6.86L44.59 6.86L43.58 6.86L43.58 7.13C43.58 7.28 43.68 7.36 43.86 7.38L43.93 7.38C43.96 7.38 44.00 7.39 44.04 7.39L44.25 7.39C44.35 7.39 44.46 7.41 44.59 7.41L44.59 15.72C44.44 15.72 44.30 15.75 44.18 15.75L43.95 15.75L43.86 15.75C43.68 15.76 43.58 15.85 43.58 16.00L43.58 16.28L44.59 16.28L45.26 16.28L46.27 16.28L46.27 16.00C46.27 15.85 46.17 15.76 45.99 15.75L45.92 15.75L45.81 15.75C45.77 15.75 45.70 15.74 45.60 15.74C45.50 15.74 45.39 15.72 45.26 15.72L45.26 12.88C45.51 13.22 45.81 13.48 46.16 13.65C46.51 13.82 46.91 13.90 47.39 13.90C47.88 13.90 48.30 13.80 48.68 13.62C49.06 13.44 49.38 13.19 49.63 12.87C49.88 12.54 50.09 12.15 50.22 11.72C50.36 11.28 50.41 10.79 50.41 10.29C50.41 9.10 50.18 8.22 49.70 7.63ZM49.57 11.55C49.48 11.93 49.31 12.25 49.10 12.53C48.89 12.81 48.64 13.01 48.33 13.16C48.02 13.31 47.66 13.38 47.25 13.38C46.83 13.38 46.47 13.30 46.14 13.13C45.82 12.96 45.53 12.70 45.26 12.29L45.26 8.64C45.56 8.20 45.88 7.87 46.26 7.63C46.63 7.39 47.05 7.28 47.52 7.28C48.23 7.28 48.78 7.52 49.15 8.01C49.53 8.50 49.73 9.25 49.73 10.29C49.73 10.75 49.69 11.17 49.57 11.55ZM61.05 13.29L60.98 13.29L60.87 13.29C60.83 13.29 60.76 13.27 60.66 13.27C60.56 13.27 60.45 13.26 60.33 13.26L60.33 3.63L59.65 3.63L58.65 3.63L58.65 3.91C58.65 4.06 58.74 4.14 58.93 4.16L59.00 4.16C59.02 4.16 59.07 4.17 59.11 4.17L59.32 4.17C59.42 4.17 59.53 4.19 59.65 4.19L59.65 13.26C59.50 13.26 59.36 13.29 59.25 13.29L59.01 13.29L58.93 13.29C58.74 13.30 58.65 13.38 58.65 13.54L58.65 13.82L59.65 13.82L60.33 13.82L61.33 13.82L61.33 13.54C61.33 13.38 61.24 13.30 61.05 13.29ZM72.55 6.73C72.06 6.73 71.61 6.83 71.22 7.00C70.83 7.17 70.50 7.41 70.24 7.71C69.97 8.02 69.76 8.39 69.62 8.81C69.48 9.23 69.40 9.69 69.40 10.19C69.40 10.78 69.48 11.31 69.64 11.77C69.79 12.24 70.00 12.61 70.28 12.94C70.56 13.26 70.90 13.50 71.29 13.66C71.68 13.83 72.11 13.90 72.59 13.90C72.86 13.90 73.12 13.89 73.37 13.83C73.63 13.78 73.88 13.71 74.10 13.62C74.33 13.54 74.54 13.44 74.72 13.31C74.90 13.19 75.05 13.06 75.17 12.92L74.98 12.70C74.96 12.66 74.90 12.63 74.84 12.63C74.80 12.63 74.72 12.66 74.62 12.74C74.52 12.82 74.38 12.91 74.20 13.01C74.03 13.10 73.81 13.17 73.56 13.26C73.30 13.34 73.00 13.38 72.65 13.38C72.25 13.38 71.90 13.31 71.58 13.17C71.26 13.03 70.99 12.84 70.77 12.57C70.55 12.31 70.38 11.97 70.25 11.58C70.13 11.19 70.07 10.71 70.07 10.19L70.07 10.07L75.10 10.07C75.17 10.07 75.21 10.05 75.24 10.01C75.26 9.97 75.29 9.90 75.29 9.80C75.29 9.31 75.22 8.88 75.08 8.50C74.94 8.12 74.76 7.78 74.51 7.53C74.27 7.28 73.98 7.08 73.64 6.94C73.30 6.80 72.94 6.73 72.55 6.73ZM72.56 7.24C72.88 7.24 73.16 7.29 73.43 7.41C73.70 7.52 73.92 7.67 74.10 7.88C74.28 8.09 74.44 8.33 74.54 8.62C74.63 8.92 74.69 9.25 74.69 9.63L70.10 9.63C70.14 9.27 70.22 8.93 70.35 8.64C70.48 8.34 70.64 8.09 70.85 7.88C71.06 7.67 71.32 7.52 71.60 7.41C71.88 7.29 72.20 7.24 72.56 7.24ZM101.14 13.29L101.07 13.29L100.95 13.29C100.91 13.29 100.84 13.27 100.74 13.27C100.65 13.27 100.53 13.26 100.41 13.26L100.41 9.37C100.41 8.96 100.35 8.60 100.25 8.27C100.16 7.95 100.02 7.67 99.82 7.45C99.62 7.22 99.39 7.06 99.09 6.93C98.80 6.80 98.46 6.75 98.08 6.75C97.57 6.75 97.09 6.87 96.67 7.11C96.25 7.36 95.89 7.67 95.56 8.08L95.51 7.03C95.49 6.92 95.42 6.86 95.30 6.86L94.93 6.86L93.93 6.86L93.93 7.13C93.93 7.28 94.01 7.36 94.19 7.38L94.28 7.38C94.30 7.38 94.33 7.39 94.37 7.39L94.58 7.39C94.68 7.39 94.81 7.41 94.93 7.41L94.93 13.26C94.77 13.26 94.63 13.29 94.51 13.29L94.29 13.29L94.19 13.29C94.01 13.30 93.93 13.38 93.93 13.54L93.93 13.82L94.93 13.82L95.59 13.82L96.60 13.82L96.60 13.54C96.60 13.38 96.52 13.30 96.33 13.29L96.25 13.29L96.15 13.29C96.11 13.29 96.04 13.27 95.94 13.27C95.84 13.27 95.72 13.26 95.59 13.26L95.59 8.60C95.90 8.19 96.25 7.87 96.64 7.63C97.03 7.39 97.45 7.28 97.92 7.28C98.53 7.28 98.99 7.46 99.29 7.83C99.58 8.20 99.74 8.71 99.74 9.37L99.74 13.82L100.41 13.82L101.42 13.82L101.42 13.54C101.42 13.38 101.32 13.30 101.14 13.29ZM112.73 6.73C112.22 6.73 111.78 6.83 111.38 7.00C110.99 7.17 110.66 7.41 110.38 7.71C110.10 8.02 109.90 8.40 109.76 8.85C109.62 9.30 109.54 9.79 109.54 10.33C109.54 10.88 109.62 11.37 109.76 11.80C109.90 12.24 110.10 12.63 110.38 12.94C110.66 13.24 110.99 13.48 111.38 13.65C111.78 13.82 112.22 13.90 112.73 13.90C113.23 13.90 113.67 13.82 114.06 13.65C114.45 13.48 114.79 13.24 115.05 12.94C115.32 12.63 115.54 12.24 115.68 11.80C115.82 11.37 115.89 10.88 115.89 10.33C115.89 9.79 115.82 9.30 115.68 8.85C115.54 8.40 115.32 8.02 115.05 7.71C114.79 7.41 114.45 7.17 114.06 7.00C113.67 6.83 113.23 6.73 112.73 6.73ZM112.73 13.38C112.31 13.38 111.94 13.31 111.64 13.17C111.33 13.03 111.06 12.82 110.85 12.56C110.64 12.29 110.50 11.97 110.39 11.59C110.28 11.21 110.24 10.79 110.24 10.33C110.24 9.87 110.28 9.45 110.39 9.07C110.50 8.69 110.64 8.37 110.85 8.11C111.06 7.84 111.33 7.62 111.64 7.48C111.94 7.34 112.31 7.27 112.73 7.27C113.15 7.27 113.50 7.34 113.81 7.48C114.11 7.62 114.38 7.84 114.59 8.11C114.80 8.37 114.95 8.69 115.05 9.07C115.15 9.45 115.21 9.87 115.21 10.33C115.21 10.79 115.15 11.21 115.05 11.59C114.95 11.97 114.80 12.29 114.59 12.56C114.38 12.82 114.11 13.03 113.81 13.17C113.50 13.31 113.15 13.38 112.73 13.38ZM126.34 13.93C126.63 13.93 126.91 13.86 127.19 13.75C127.46 13.64 127.68 13.48 127.86 13.29L127.68 12.98C127.64 12.94 127.61 12.92 127.57 12.92C127.54 12.92 127.48 12.94 127.43 12.99C127.37 13.05 127.30 13.09 127.22 13.15C127.13 13.20 127.02 13.26 126.90 13.31C126.77 13.37 126.64 13.38 126.48 13.38C126.34 13.38 126.20 13.36 126.08 13.31C125.97 13.27 125.87 13.20 125.79 13.12C125.71 13.03 125.64 12.92 125.58 12.78C125.52 12.64 125.51 12.49 125.51 12.29L125.51 7.57L127.71 7.57L127.71 7.07L125.51 7.07L125.51 4.41L125.19 4.41C125.13 4.41 125.10 4.44 125.08 4.47C125.05 4.49 125.02 4.54 125.02 4.58L124.85 7.07L123.66 7.15L123.66 7.41C123.66 7.46 123.68 7.49 123.70 7.52C123.73 7.55 123.79 7.57 123.84 7.57L124.84 7.57L124.84 12.33C124.84 12.88 124.96 13.27 125.23 13.54C125.50 13.80 125.86 13.93 126.34 13.93ZM137.00 4.89C137.06 4.94 137.13 4.98 137.20 5.01C137.27 5.04 137.35 5.07 137.44 5.07C137.52 5.07 137.61 5.04 137.68 5.01C137.75 4.98 137.82 4.94 137.87 4.89C137.93 4.83 137.98 4.76 138.01 4.69C138.04 4.62 138.07 4.54 138.07 4.45C138.07 4.37 138.04 4.30 138.01 4.21C137.98 4.14 137.93 4.07 137.87 4.02C137.82 3.96 137.75 3.91 137.68 3.88C137.61 3.85 137.52 3.84 137.44 3.84C137.35 3.84 137.27 3.85 137.20 3.88C137.13 3.91 137.06 3.96 137.00 4.02C136.95 4.07 136.91 4.14 136.88 4.21C136.85 4.28 136.82 4.37 136.82 4.45C136.82 4.54 136.85 4.62 136.88 4.69C136.91 4.76 136.95 4.83 137.00 4.89ZM138.50 13.29L138.43 13.29L138.32 13.29C138.28 13.29 138.21 13.27 138.11 13.27C138.01 13.27 137.90 13.26 137.77 13.26L137.77 6.85L137.10 6.85L136.09 6.85L136.09 7.13C136.09 7.28 136.19 7.36 136.37 7.38L136.44 7.38C136.47 7.38 136.51 7.39 136.56 7.39L136.77 7.39C136.86 7.39 136.98 7.41 137.10 7.41L137.10 13.26C136.95 13.26 136.81 13.29 136.70 13.29L136.46 13.29L136.37 13.29C136.19 13.30 136.09 13.38 136.09 13.54L136.09 13.82L137.10 13.82L137.77 13.82L138.78 13.82L138.78 13.54C138.78 13.38 138.68 13.30 138.50 13.29ZM148.92 5.32C149.00 5.08 149.10 4.90 149.24 4.75C149.38 4.59 149.55 4.48 149.74 4.41C149.94 4.34 150.15 4.31 150.37 4.31C150.51 4.31 150.64 4.33 150.74 4.34C150.84 4.35 150.91 4.35 150.96 4.35C151.05 4.35 151.10 4.33 151.10 4.26L151.12 3.93C151.00 3.89 150.86 3.85 150.72 3.82C150.57 3.79 150.43 3.79 150.29 3.79C149.97 3.79 149.69 3.84 149.42 3.93C149.16 4.03 148.93 4.20 148.75 4.40C148.57 4.59 148.41 4.84 148.32 5.14C148.22 5.43 148.16 5.80 148.16 6.19L148.16 7.07L146.97 7.07L146.97 7.35C146.97 7.46 147.03 7.50 147.17 7.52L148.16 7.59L148.16 13.26C147.99 13.26 147.85 13.27 147.71 13.27C147.57 13.27 147.48 13.29 147.41 13.29L147.28 13.29C147.10 13.30 147.00 13.38 147.00 13.54L147.00 13.82L148.18 13.82L148.82 13.82L150.00 13.82L150.00 13.54C150.00 13.38 149.90 13.30 149.72 13.29L149.59 13.29C149.52 13.29 149.42 13.27 149.28 13.27C149.14 13.27 148.99 13.26 148.82 13.26L148.82 7.57L151.06 7.57L151.06 7.07L148.81 7.07L148.81 6.22C148.81 5.87 148.83 5.56 148.92 5.32ZM160.31 4.89C160.37 4.94 160.44 4.98 160.51 5.01C160.58 5.04 160.66 5.07 160.75 5.07C160.83 5.07 160.92 5.04 160.99 5.01C161.06 4.98 161.13 4.94 161.18 4.89C161.24 4.83 161.29 4.76 161.32 4.69C161.35 4.62 161.38 4.54 161.38 4.45C161.38 4.37 161.35 4.30 161.32 4.21C161.29 4.14 161.24 4.07 161.18 4.02C161.13 3.96 161.06 3.91 160.99 3.88C160.92 3.85 160.83 3.84 160.75 3.84C160.66 3.84 160.58 3.85 160.51 3.88C160.44 3.91 160.37 3.96 160.31 4.02C160.26 4.07 160.22 4.14 160.19 4.21C160.16 4.28 160.13 4.37 160.13 4.45C160.13 4.54 160.16 4.62 160.19 4.69C160.22 4.76 160.26 4.83 160.31 4.89ZM161.81 13.29L161.74 13.29L161.63 13.29C161.59 13.29 161.52 13.27 161.42 13.27C161.32 13.27 161.21 13.26 161.08 13.26L161.08 6.85L160.41 6.85L159.40 6.85L159.40 7.13C159.40 7.28 159.50 7.36 159.68 7.38L159.75 7.38C159.78 7.38 159.82 7.39 159.87 7.39L160.08 7.39C160.17 7.39 160.29 7.41 160.41 7.41L160.41 13.26C160.26 13.26 160.12 13.29 160.01 13.29L159.77 13.29L159.68 13.29C159.50 13.30 159.40 13.38 159.40 13.54L159.40 13.82L160.41 13.82L161.08 13.82L162.09 13.82L162.09 13.54C162.09 13.38 161.99 13.30 161.81 13.29ZM175.38 12.70C175.35 12.66 175.29 12.63 175.24 12.63C175.18 12.63 175.13 12.66 175.04 12.74C174.96 12.82 174.83 12.91 174.69 13.01C174.55 13.10 174.36 13.17 174.13 13.26C173.91 13.34 173.61 13.38 173.28 13.38C172.91 13.38 172.58 13.31 172.28 13.17C171.99 13.03 171.74 12.85 171.53 12.59C171.32 12.33 171.15 12.01 171.04 11.63C170.93 11.26 170.87 10.82 170.87 10.33C170.87 9.86 170.93 9.44 171.04 9.06C171.15 8.68 171.32 8.36 171.53 8.09C171.74 7.83 172.00 7.62 172.31 7.48C172.62 7.34 172.97 7.27 173.38 7.27C173.73 7.27 174.12 7.35 174.57 7.50C174.58 7.69 174.58 7.87 174.59 8.04C174.61 8.20 174.62 8.33 174.64 8.43C174.65 8.53 174.65 8.58 174.65 8.60C174.66 8.82 174.76 8.93 174.96 8.93L175.29 8.93L175.29 7.18L174.93 7.07C174.69 7.00 174.40 6.92 174.08 6.85C173.75 6.78 173.50 6.75 173.33 6.75C172.83 6.75 172.40 6.82 172.00 7.00C171.61 7.18 171.28 7.42 171.01 7.74C170.74 8.06 170.55 8.44 170.41 8.88C170.27 9.31 170.18 9.80 170.18 10.33C170.18 10.89 170.25 11.40 170.41 11.84C170.55 12.29 170.76 12.66 171.02 12.96C171.29 13.27 171.61 13.51 171.98 13.66C172.34 13.83 172.73 13.92 173.18 13.92C173.45 13.92 173.70 13.89 173.94 13.83C174.17 13.78 174.40 13.72 174.61 13.64C174.82 13.55 174.99 13.44 175.15 13.31C175.32 13.19 175.45 13.06 175.56 12.92ZM189.38 13.29L189.28 13.29L189.06 13.29C188.96 13.29 188.85 13.27 188.73 13.27L188.73 9.28C188.73 8.89 188.69 8.55 188.59 8.23C188.50 7.91 188.36 7.64 188.17 7.42C187.99 7.20 187.75 7.03 187.47 6.92C187.19 6.79 186.87 6.73 186.49 6.73C185.99 6.73 185.54 6.83 185.14 7.01C184.73 7.20 184.35 7.48 183.99 7.84L184.10 8.05C184.14 8.13 184.21 8.18 184.31 8.18C184.38 8.18 184.48 8.12 184.58 8.02C184.67 7.92 184.81 7.84 184.98 7.73C185.15 7.62 185.33 7.52 185.57 7.42C185.81 7.32 186.09 7.28 186.42 7.28C186.97 7.28 187.39 7.45 187.67 7.80C187.95 8.15 188.08 8.64 188.08 9.28L188.08 10.01C187.29 10.02 186.62 10.09 186.06 10.21C185.50 10.32 185.04 10.47 184.67 10.65C184.31 10.84 184.06 11.06 183.89 11.31C183.72 11.56 183.64 11.83 183.64 12.12C183.64 12.45 183.69 12.73 183.79 12.95C183.90 13.17 184.04 13.36 184.21 13.50C184.38 13.64 184.59 13.75 184.81 13.82C185.04 13.89 185.26 13.93 185.50 13.93C185.78 13.93 186.05 13.90 186.28 13.85C186.52 13.79 186.73 13.71 186.94 13.61C187.15 13.51 187.35 13.38 187.54 13.23C187.73 13.08 187.91 12.91 188.10 12.73L188.20 13.62C188.23 13.75 188.33 13.82 188.47 13.82L188.48 13.82L188.73 13.82L189.66 13.82L189.66 13.54C189.66 13.38 189.56 13.30 189.38 13.29ZM188.08 12.26C187.91 12.43 187.75 12.60 187.59 12.74C187.42 12.88 187.24 13.01 187.04 13.12C186.84 13.23 186.63 13.30 186.41 13.36C186.19 13.41 185.93 13.44 185.67 13.44C185.49 13.44 185.30 13.43 185.14 13.37C184.97 13.31 184.83 13.24 184.70 13.13C184.58 13.02 184.46 12.88 184.39 12.71C184.31 12.54 184.28 12.35 184.28 12.11C184.28 11.86 184.35 11.63 184.51 11.44C184.66 11.24 184.88 11.09 185.19 10.95C185.50 10.81 185.89 10.70 186.37 10.61C186.84 10.53 187.42 10.47 188.08 10.46ZM200.00 13.93C200.30 13.93 200.58 13.86 200.86 13.75C201.12 13.64 201.35 13.48 201.53 13.29L201.35 12.98C201.31 12.94 201.28 12.92 201.24 12.92C201.21 12.92 201.15 12.94 201.10 12.99C201.04 13.05 200.97 13.09 200.89 13.15C200.80 13.20 200.69 13.26 200.56 13.31C200.44 13.37 200.31 13.38 200.14 13.38C200.00 13.38 199.86 13.36 199.75 13.31C199.64 13.27 199.54 13.20 199.46 13.12C199.37 13.03 199.30 12.92 199.25 12.78C199.19 12.64 199.18 12.49 199.18 12.29L199.18 7.57L201.38 7.57L201.38 7.07L199.18 7.07L199.18 4.41L198.86 4.41C198.80 4.41 198.77 4.44 198.74 4.47C198.72 4.49 198.69 4.54 198.69 4.58L198.52 7.07L197.33 7.15L197.33 7.41C197.33 7.46 197.34 7.49 197.37 7.52C197.40 7.55 197.46 7.57 197.51 7.57L198.51 7.57L198.51 12.33C198.51 12.88 198.63 13.27 198.90 13.54C199.16 13.80 199.53 13.93 200.00 13.93ZM210.67 4.89C210.73 4.94 210.80 4.98 210.87 5.01C210.94 5.04 211.02 5.07 211.11 5.07C211.19 5.07 211.27 5.04 211.34 5.01C211.41 4.98 211.48 4.94 211.54 4.89C211.60 4.83 211.65 4.76 211.68 4.69C211.71 4.62 211.74 4.54 211.74 4.45C211.74 4.37 211.71 4.30 211.68 4.21C211.65 4.14 211.60 4.07 211.54 4.02C211.48 3.96 211.41 3.91 211.34 3.88C211.27 3.85 211.19 3.84 211.11 3.84C211.02 3.84 210.94 3.85 210.87 3.88C210.80 3.91 210.73 3.96 210.67 4.02C210.62 4.07 210.57 4.14 210.55 4.21C210.52 4.28 210.49 4.37 210.49 4.45C210.49 4.54 210.52 4.62 210.55 4.69C210.57 4.76 210.62 4.83 210.67 4.89ZM212.17 13.29L212.10 13.29L211.99 13.29C211.95 13.29 211.88 13.27 211.78 13.27C211.68 13.27 211.57 13.26 211.44 13.26L211.44 6.85L210.77 6.85L209.76 6.85L209.76 7.13C209.76 7.28 209.86 7.36 210.04 7.38L210.11 7.38C210.14 7.38 210.18 7.39 210.22 7.39L210.43 7.39C210.53 7.39 210.64 7.41 210.77 7.41L210.77 13.26C210.62 13.26 210.48 13.29 210.36 13.29L210.13 13.29L210.04 13.29C209.86 13.30 209.76 13.38 209.76 13.54L209.76 13.82L210.77 13.82L211.44 13.82L212.45 13.82L212.45 13.54C212.45 13.38 212.35 13.30 212.17 13.29ZM223.73 6.73C223.23 6.73 222.78 6.83 222.39 7.00C222.00 7.17 221.66 7.41 221.38 7.71C221.10 8.02 220.91 8.40 220.77 8.85C220.63 9.30 220.54 9.79 220.54 10.33C220.54 10.88 220.63 11.37 220.77 11.80C220.91 12.24 221.10 12.63 221.38 12.94C221.66 13.24 222.00 13.48 222.39 13.65C222.78 13.82 223.23 13.90 223.73 13.90C224.24 13.90 224.67 13.82 225.06 13.65C225.46 13.48 225.79 13.24 226.06 12.94C226.32 12.63 226.55 12.24 226.69 11.80C226.83 11.37 226.90 10.88 226.90 10.33C226.90 9.79 226.83 9.30 226.69 8.85C226.55 8.40 226.32 8.02 226.06 7.71C225.79 7.41 225.46 7.17 225.06 7.00C224.67 6.83 224.24 6.73 223.73 6.73ZM223.73 13.38C223.31 13.38 222.95 13.31 222.64 13.17C222.33 13.03 222.07 12.82 221.86 12.56C221.65 12.29 221.51 11.97 221.40 11.59C221.28 11.21 221.24 10.79 221.24 10.33C221.24 9.87 221.28 9.45 221.40 9.07C221.51 8.69 221.65 8.37 221.86 8.11C222.07 7.84 222.33 7.62 222.64 7.48C222.95 7.34 223.31 7.27 223.73 7.27C224.15 7.27 224.50 7.34 224.81 7.48C225.12 7.62 225.39 7.84 225.60 8.11C225.81 8.37 225.96 8.69 226.06 9.07C226.16 9.45 226.21 9.87 226.21 10.33C226.21 10.79 226.16 11.21 226.06 11.59C225.96 11.97 225.81 12.29 225.60 12.56C225.39 12.82 225.12 13.03 224.81 13.17C224.50 13.31 224.15 13.38 223.73 13.38ZM242.37 13.29L242.30 13.29L242.19 13.29C242.14 13.29 242.07 13.27 241.98 13.27C241.88 13.27 241.77 13.26 241.64 13.26L241.64 9.37C241.64 8.96 241.58 8.60 241.49 8.27C241.39 7.95 241.25 7.67 241.05 7.45C240.86 7.22 240.62 7.06 240.32 6.93C240.03 6.80 239.69 6.75 239.32 6.75C238.80 6.75 238.32 6.87 237.90 7.11C237.48 7.36 237.12 7.67 236.80 8.08L236.74 7.03C236.73 6.92 236.66 6.86 236.53 6.86L236.17 6.86L235.16 6.86L235.16 7.13C235.16 7.28 235.24 7.36 235.42 7.38L235.51 7.38C235.54 7.38 235.56 7.39 235.61 7.39L235.82 7.39C235.91 7.39 236.04 7.41 236.17 7.41L236.17 13.26C236.00 13.26 235.86 13.29 235.75 13.29L235.52 13.29L235.42 13.29C235.24 13.30 235.16 13.38 235.16 13.54L235.16 13.82L236.17 13.82L236.82 13.82L237.83 13.82L237.83 13.54C237.83 13.38 237.75 13.30 237.57 13.29L237.48 13.29L237.38 13.29C237.34 13.29 237.27 13.27 237.17 13.27C237.08 13.27 236.95 13.26 236.82 13.26L236.82 8.60C237.13 8.19 237.48 7.87 237.87 7.63C238.27 7.39 238.69 7.28 239.15 7.28C239.76 7.28 240.23 7.46 240.52 7.83C240.81 8.20 240.97 8.71 240.97 9.37L240.97 13.82L241.64 13.82L242.65 13.82L242.65 13.54C242.65 13.38 242.55 13.30 242.37 13.29ZM266.91 13.29L266.81 13.29L266.59 13.29C266.49 13.29 266.38 13.27 266.27 13.27L266.27 9.28C266.27 8.89 266.22 8.55 266.13 8.23C266.03 7.91 265.89 7.64 265.71 7.42C265.52 7.20 265.29 7.03 265.01 6.92C264.73 6.79 264.40 6.73 264.03 6.73C263.52 6.73 263.07 6.83 262.67 7.01C262.26 7.20 261.88 7.48 261.52 7.84L261.63 8.05C261.67 8.13 261.74 8.18 261.84 8.18C261.91 8.18 262.01 8.12 262.11 8.02C262.21 7.92 262.35 7.84 262.51 7.73C262.68 7.62 262.86 7.52 263.10 7.42C263.34 7.32 263.62 7.28 263.96 7.28C264.50 7.28 264.92 7.45 265.20 7.80C265.48 8.15 265.61 8.64 265.61 9.28L265.61 10.01C264.82 10.02 264.15 10.09 263.59 10.21C263.03 10.32 262.57 10.47 262.21 10.65C261.84 10.84 261.59 11.06 261.42 11.31C261.25 11.56 261.17 11.83 261.17 12.12C261.17 12.45 261.23 12.73 261.32 12.95C261.44 13.17 261.58 13.36 261.74 13.50C261.91 13.64 262.12 13.75 262.35 13.82C262.57 13.89 262.79 13.93 263.03 13.93C263.31 13.93 263.58 13.90 263.82 13.85C264.05 13.79 264.26 13.71 264.47 13.61C264.68 13.51 264.88 13.38 265.08 13.23C265.26 13.08 265.44 12.91 265.64 12.73L265.73 13.62C265.76 13.75 265.86 13.82 266.00 13.82L266.01 13.82L266.27 13.82L267.19 13.82L267.19 13.54C267.19 13.38 267.09 13.30 266.91 13.29ZM265.61 12.26C265.44 12.43 265.29 12.60 265.12 12.74C264.95 12.88 264.77 13.01 264.57 13.12C264.38 13.23 264.17 13.30 263.94 13.36C263.72 13.41 263.47 13.44 263.20 13.44C263.02 13.44 262.84 13.43 262.67 13.37C262.50 13.31 262.36 13.24 262.23 13.13C262.11 13.02 262.00 12.88 261.93 12.71C261.84 12.54 261.81 12.35 261.81 12.11C261.81 11.86 261.88 11.63 262.04 11.44C262.19 11.24 262.42 11.09 262.72 10.95C263.03 10.81 263.42 10.70 263.90 10.61C264.38 10.53 264.95 10.47 265.61 10.46ZM281.20 7.63C280.73 7.04 280.06 6.73 279.20 6.73C278.68 6.73 278.24 6.86 277.82 7.11C277.41 7.36 277.05 7.69 276.74 8.11L276.67 7.03C276.67 6.96 276.65 6.92 276.61 6.89C276.57 6.86 276.51 6.86 276.46 6.86L276.09 6.86L275.09 6.86L275.09 7.13C275.09 7.28 275.18 7.36 275.37 7.38L275.44 7.38C275.46 7.38 275.51 7.39 275.55 7.39L275.76 7.39C275.86 7.39 275.97 7.41 276.09 7.41L276.09 15.72C275.94 15.72 275.80 15.75 275.69 15.75L275.45 15.75L275.37 15.75C275.18 15.76 275.09 15.85 275.09 16.00L275.09 16.28L276.09 16.28L276.77 16.28L277.77 16.28L277.77 16.00C277.77 15.85 277.68 15.76 277.49 15.75L277.42 15.75L277.31 15.75C277.27 15.75 277.20 15.74 277.10 15.74C277.00 15.74 276.89 15.72 276.77 15.72L276.77 12.88C277.02 13.22 277.31 13.48 277.66 13.65C278.01 13.82 278.42 13.90 278.89 13.90C279.38 13.90 279.80 13.80 280.18 13.62C280.56 13.44 280.88 13.19 281.13 12.87C281.39 12.54 281.60 12.15 281.72 11.72C281.86 11.28 281.92 10.79 281.92 10.29C281.92 9.10 281.68 8.22 281.20 7.63ZM281.08 11.55C280.98 11.93 280.81 12.25 280.60 12.53C280.39 12.81 280.14 13.01 279.83 13.16C279.52 13.31 279.16 13.38 278.75 13.38C278.33 13.38 277.97 13.30 277.65 13.13C277.33 12.96 277.03 12.70 276.77 12.29L276.77 8.64C277.06 8.20 277.38 7.87 277.76 7.63C278.14 7.39 278.56 7.28 279.02 7.28C279.73 7.28 280.28 7.52 280.66 8.01C281.04 8.50 281.23 9.25 281.23 10.29C281.23 10.75 281.19 11.17 281.08 11.55ZM295.88 7.63C295.40 7.04 294.73 6.73 293.87 6.73C293.36 6.73 292.91 6.86 292.49 7.11C292.08 7.36 291.72 7.69 291.41 8.11L291.34 7.03C291.34 6.96 291.33 6.92 291.28 6.89C291.24 6.86 291.19 6.86 291.13 6.86L290.77 6.86L289.76 6.86L289.76 7.13C289.76 7.28 289.86 7.36 290.04 7.38L290.11 7.38C290.14 7.38 290.18 7.39 290.22 7.39L290.43 7.39C290.53 7.39 290.64 7.41 290.77 7.41L290.77 15.72C290.61 15.72 290.47 15.75 290.36 15.75L290.12 15.75L290.04 15.75C289.86 15.76 289.76 15.85 289.76 16.00L289.76 16.28L290.77 16.28L291.44 16.28L292.45 16.28L292.45 16.00C292.45 15.85 292.35 15.76 292.17 15.75L292.10 15.75L291.98 15.75C291.94 15.75 291.87 15.74 291.77 15.74C291.68 15.74 291.56 15.72 291.44 15.72L291.44 12.88C291.69 13.22 291.98 13.48 292.33 13.65C292.68 13.82 293.09 13.90 293.57 13.90C294.06 13.90 294.48 13.80 294.85 13.62C295.23 13.44 295.55 13.19 295.81 12.87C296.06 12.54 296.27 12.15 296.39 11.72C296.53 11.28 296.59 10.79 296.59 10.29C296.59 9.10 296.35 8.22 295.88 7.63ZM295.75 11.55C295.65 11.93 295.48 12.25 295.27 12.53C295.06 12.81 294.81 13.01 294.50 13.16C294.20 13.31 293.83 13.38 293.43 13.38C293.01 13.38 292.64 13.30 292.32 13.13C292.00 12.96 291.70 12.70 291.44 12.29L291.44 8.64C291.73 8.20 292.05 7.87 292.43 7.63C292.81 7.39 293.23 7.28 293.69 7.28C294.41 7.28 294.95 7.52 295.33 8.01C295.71 8.50 295.90 9.25 295.90 10.29C295.90 10.75 295.86 11.17 295.75 11.55Z"></path></g></svg>